HIERARCHY
ROOT Hips
{
    OFFSET 0.000000 0.000000 0.000000
    CHANNELS 6 Xposition Yposition Zposition Zrotation Xrotation Yrotation
    JOINT Spine
    {
        OFFSET -0.000000 14.517291 0.000000
        CHANNELS 3 Zrotation Xrotation Yrotation
        JOINT Spine1
        {
            OFFSET -0.000000 37.558300 0.000000
            CHANNELS 3 Zrotation Xrotation Yrotation
            JOINT Neck
            {
                OFFSET -0.000000 37.404057 3.400369
                CHANNELS 3 Zrotation Xrotation Yrotation
                JOINT Head
                {
                    OFFSET -0.000000 24.785618 -3.540803
                    CHANNELS 3 Zrotation Xrotation Yrotation
                    End Site
                    {
                        OFFSET -0.000000 35.408028 0.000000
                    }
                }
            }
            JOINT LeftShoulder
            {
                OFFSET 6.992933 33.973492 -0.192664
                CHANNELS 3 Zrotation Xrotation Yrotation
                JOINT LeftArm
                {
                    OFFSET 21.527611 0.000000 0.000000
                    CHANNELS 3 Zrotation Xrotation Yrotation
                    JOINT LeftForeArm
                    {
                        OFFSET 56.353916 0.000000 0.000000
                        CHANNELS 3 Zrotation Xrotation Yrotation
                        JOINT LeftHand
                        {
                            OFFSET 47.774071 0.000000 0.000000
                            CHANNELS 3 Zrotation Xrotation Yrotation
                            End Site
                            {
                                OFFSET 26.556021 0.000000 0.000000
                            }
                        }
                    }
                }
            }
            JOINT RightShoulder
            {
                OFFSET -7.065357 33.973492 -0.192664
                CHANNELS 3 Zrotation Xrotation Yrotation
                JOINT RightArm
                {
                    OFFSET -21.527611 0.000000 0.000000
                    CHANNELS 3 Zrotation Xrotation Yrotation
                    JOINT RightForeArm
                    {
                        OFFSET -56.353916 0.000000 0.000000
                        CHANNELS 3 Zrotation Xrotation Yrotation
                        JOINT RightHand
                        {
                            OFFSET -47.774071 0.000000 0.000000
                            CHANNELS 3 Zrotation Xrotation Yrotation
                            End Site
                            {
                                OFFSET -26.556021 0.000000 0.000000
                            }
                        }
                    }
                }
            }
        }
    }
    JOINT LeftUpLeg
    {
        OFFSET 17.704014 0.000000 0.000000
        CHANNELS 3 Zrotation Xrotation Yrotation
        JOINT LeftLeg
        {
            OFFSET -0.000000 -81.181816 0.000000
            CHANNELS 3 Zrotation Xrotation Yrotation
            JOINT LeftFoot
            {
                OFFSET -0.000000 -62.821102 0.000000
                CHANNELS 3 Zrotation Xrotation Yrotation
                JOINT LeftToeBase
                {
                    OFFSET -0.000000 -11.507608 26.556021
                    CHANNELS 3 Zrotation Xrotation Yrotation
                    End Site
                    {
                        OFFSET -0.000000 0.000000 7.081605
                    }
                }
            }
        }
    }
    JOINT RightUpLeg
    {
        OFFSET -17.704014 0.000000 0.000000
        CHANNELS 3 Zrotation Xrotation Yrotation
        JOINT RightLeg
        {
            OFFSET -0.000000 -81.181816 0.000000
            CHANNELS 3 Zrotation Xrotation Yrotation
            JOINT RightFoot
            {
                OFFSET -0.000000 -62.821102 0.000000
                CHANNELS 3 Zrotation Xrotation Yrotation
                JOINT RightToeBase
                {
                    OFFSET -0.000000 -11.507608 26.556021
                    CHANNELS 3 Zrotation Xrotation Yrotation
                    End Site
                    {
                        OFFSET -0.000000 0.000000 7.081605
                    }
                }
            }
        }
    }
}
MOTION
Frames:    4
Frame Time:    0.008333
26.469881    156.127930    -35.312462    0.920582    -0.756113    -45.169704    1.364606    0.045171    1.881957    2.062100    -1.892439    0.660909    17.201542    3.029615    15.043921    -11.787351    7.356440    12.658139    9.603925    -2.740923    -16.677835    -17.415550    -20.222761    -46.262424    21.395985    -44.418922    -31.037329    -29.644545    -30.276043    -42.622749    -5.586793    4.639375    -0.567188    33.828594    9.525061    80.289230    3.756407    -7.247171    101.373466    12.136173    -9.130692    24.876112    17.702129    -19.773705    5.085838    -12.248848    19.747843    -3.309832    -7.979775    -0.139050    37.813122    0.000000    0.000000    0.000000    -16.243202    0.830728    -7.016918    7.049146    28.129059    -2.310569    5.661940    -21.083471    -16.046038    0.000000    0.000000    0.000000    
26.520405    156.122269    -35.332722    0.936563    -0.756229    -45.222965    1.358709    0.050562    1.857342    2.068707    -1.902393    0.652926    17.214943    3.025107    15.049938    -11.801357    7.390760    12.664576    9.641489    -2.759089    -16.719919    -17.047932    -19.860485    -46.055290    21.043293    -44.142033    -29.965881    -29.724298    -30.177999    -42.652039    -5.583561    4.627663    -0.563932    33.850426    9.509468    80.287407    3.783167    -7.204494    101.379410    12.171936    -9.112572    24.883036    17.701904    -19.783602    5.101308    -12.259903    19.747643    -3.295591    -7.972228    -0.132384    37.838905    0.000000    0.000000    0.000000    -16.275370    0.755813    -6.971231    7.064702    28.187384    -2.268431    5.647379    -21.092455    -16.079374    0.000000    0.000000    0.000000    
26.564512    156.116455    -35.348289    0.940916    -0.761098    -45.268177    1.343165    0.062761    1.825010    2.094146    -1.906893    0.642712    17.197147    3.055445    15.114177    -11.774525    7.336888    12.735247    9.684897    -2.765483    -16.753202    -16.740896    -19.532965    -45.878235    20.741146    -43.829807    -28.931274    -29.872961    -30.022381    -42.555077    -5.584709    4.610634    -0.573471    33.855587    9.504505    80.288490    3.795071    -7.177754    101.395958    12.155145    -9.104011    24.895727    17.702368    -19.783966    5.116124    -12.266352    19.748241    -3.270365    -7.976089    -0.140399    37.849003    0.000000    0.000000    0.000000    -16.303646    0.703154    -6.903326    7.106198    28.225071    -2.318120    5.641478    -21.100584    -16.075197    0.000000    0.000000    0.000000    
26.609219    156.109360    -35.358425    0.951728    -0.772883    -45.313568    1.335872    0.064366    1.794283    2.099894    -1.896645    0.632420    17.255751    3.017228    15.143609    -11.852625    7.436361    12.757215    9.709656    -2.772758    -16.787596    -16.427654    -19.216942    -45.701859    20.402845    -43.479687    -27.940147    -29.958145    -29.813477    -42.560680    -5.588047    4.601782    -0.565289    33.839161    9.496036    80.285820    3.792535    -7.190969    101.406792    12.158904    -9.112947    24.905958    17.690075    -19.778980    5.127853    -12.270382    19.742012    -3.260928    -7.966039    -0.132345    37.857563    0.000000    0.000000    0.000000    -16.345139    0.653919    -6.855908    7.132940    28.271296    -2.310751    5.640559    -21.110670    -16.070820    0.000000    0.000000    0.000000    
